<?xml version="1.0" standalone="no"?>
<!DOCTYPE svg PUBLIC "-//W3C//DTD SVG 20010904//EN"
 "http://www.w3.org/TR/2001/REC-SVG-20010904/DTD/svg10.dtd">
<svg version="1.0" xmlns="http://www.w3.org/2000/svg"
 width="512.000000pt" height="512.000000pt" viewBox="0 0 512.000000 512.000000"
 preserveAspectRatio="xMidYMid meet">

<g transform="translate(0.000000,512.000000) scale(0.100000,-0.100000)"
fill="#000000" stroke="none">
<path d="M4190 5106 c-94 -21 -139 -53 -300 -212 l-155 -153 502 -503 503
-503 154 154 c86 86 166 175 180 200 55 103 57 229 5 339 -27 57 -536 576
-614 627 -85 55 -181 73 -275 51z"/>
<path d="M105 389 c-27 -72 -105 -317 -105 -329 0 -20 41 -60 61 -60 17 0 321
100 331 109 4 4 -57 71 -137 151 -98 98 -146 139 -150 129z"/>
</g>
</svg>
