<?xml version="1.0" standalone="no"?>
<!DOCTYPE svg PUBLIC "-//W3C//DTD SVG 20010904//EN"
 "http://www.w3.org/TR/2001/REC-SVG-20010904/DTD/svg10.dtd">
<svg version="1.0" xmlns="http://www.w3.org/2000/svg"
 width="269.000000pt" height="147.000000pt" viewBox="0 0 269.000000 147.000000"
 preserveAspectRatio="xMidYMid meet">

<g transform="translate(0.000000,147.000000) scale(0.100000,-0.100000)"
fill="#000000" stroke="none">
<path d="M2057 873 c-4 -3 -7 -37 -7 -75 0 -61 2 -68 20 -68 18 0 20 7 20 75
0 56 -3 75 -13 75 -8 0 -17 -3 -20 -7z"/>
<path d="M2257 849 c-19 -21 -22 -39 -8 -39 6 0 11 -17 13 -37 3 -35 5 -38 38
-41 l35 -3 -22 21 c-27 25 -29 46 -6 59 16 8 15 12 -8 35 -25 25 -26 25 -42 5z"/>
<path d="M1811 839 c-8 -14 -9 -24 -3 -28 6 -3 12 -22 14 -41 3 -30 7 -35 31
-38 28 -3 38 15 12 24 -8 4 -15 17 -15 30 0 15 6 24 15 24 21 0 19 12 -5 33
-26 22 -32 21 -49 -4z"/>
<path d="M1038 829 c-22 -12 -24 -65 -3 -85 19 -19 80 -15 80 6 0 9 -10 14
-30 15 -23 0 -30 5 -30 20 0 16 7 20 30 20 20 0 30 5 30 15 0 18 -52 25 -77 9z"/>
<path d="M1162 824 c-27 -18 -29 -55 -4 -77 22 -20 75 -22 91 -4 48 58 -24
125 -87 81z m63 -39 c0 -13 -8 -21 -22 -23 -19 -3 -23 1 -23 23 0 22 4 26 23
23 14 -2 22 -10 22 -23z"/>
<path d="M1290 785 c0 -67 24 -78 34 -15 5 31 11 40 26 40 17 0 20 -7 20 -40
0 -33 3 -40 20 -40 17 0 20 7 20 38 0 50 -24 72 -78 72 l-42 0 0 -55z"/>
<path d="M1445 823 c-34 -33 5 -98 52 -87 12 4 23 2 23 -4 0 -14 -22 -21 -53
-15 -20 4 -27 1 -27 -11 0 -12 10 -16 40 -16 58 0 80 26 80 94 l0 54 -50 0
c-31 0 -57 -6 -65 -15z m75 -32 c0 -20 -25 -35 -41 -25 -5 3 -9 14 -9 25 0 14
7 19 25 19 18 0 25 -5 25 -19z"/>
<path d="M1590 784 c0 -41 4 -54 15 -54 9 0 15 9 15 24 0 35 10 56 26 56 8 0
14 6 14 13 0 8 -13 13 -35 14 l-35 1 0 -54z"/>
<path d="M1687 833 c-15 -14 -6 -23 23 -23 17 0 30 -4 30 -10 0 -5 -10 -10
-23 -10 -32 0 -49 -18 -36 -42 7 -13 21 -18 54 -18 l45 0 0 43 c0 24 -5 48
-12 55 -13 13 -70 17 -81 5z m57 -74 c-7 -11 -34 -12 -34 -1 0 14 11 21 26 15
8 -3 11 -9 8 -14z"/>
<path d="M1910 801 c0 -64 6 -71 61 -71 l49 0 0 45 c0 25 0 48 1 53 0 4 -7 8
-15 10 -11 2 -16 -7 -18 -35 -2 -30 -7 -38 -23 -38 -16 0 -21 8 -23 38 -4 53
-32 51 -32 -2z"/>
<path d="M2127 834 c-11 -12 3 -24 29 -24 33 0 31 -18 -3 -22 -22 -2 -28 -8
-28 -28 0 -23 4 -25 48 -28 l47 -3 0 43 c0 24 -5 49 -12 56 -13 13 -70 17 -81
6z m58 -64 c3 -6 -1 -13 -10 -16 -19 -8 -30 0 -20 15 8 14 22 14 30 1z"/>
<path d="M2356 824 c-21 -21 -20 -57 2 -77 23 -21 82 -23 82 -3 0 10 -9 14
-26 13 -15 -1 -29 4 -31 11 -3 7 1 13 8 11 32 -4 69 2 69 11 0 19 -40 50 -64
50 -14 0 -32 -7 -40 -16z m64 -25 c0 -5 -9 -9 -20 -9 -19 0 -26 11 -14 23 8 8
34 -3 34 -14z"/>
<path d="M1611 630 c-16 -9 -6 -30 15 -30 15 0 20 25 6 34 -4 2 -14 1 -21 -4z"/>
<path d="M1448 621 c-20 -7 -63 -61 -49 -61 5 0 11 -19 13 -42 2 -31 8 -44 21
-46 14 -3 17 4 17 37 0 23 5 41 10 41 14 0 12 27 -2 33 -9 3 -7 9 6 19 21 16
11 29 -16 19z"/>
<path d="M2040 600 c0 -15 -7 -20 -29 -20 -35 0 -61 -23 -61 -54 0 -34 31 -56
78 -56 l42 0 0 75 c0 60 -3 75 -15 75 -8 0 -15 -9 -15 -20z m0 -68 c-1 -18
-20 -34 -34 -29 -16 6 -22 38 -10 50 8 7 44 -10 44 -21z"/>
<path d="M830 570 c0 -6 6 -23 14 -38 28 -55 29 -72 7 -72 -12 0 -21 -6 -21
-16 0 -11 8 -14 28 -12 22 2 33 14 59 68 37 74 38 80 18 80 -8 0 -22 -15 -31
-32 l-17 -33 -14 33 c-12 30 -43 45 -43 22z"/>
<path d="M978 569 c-24 -13 -23 -61 0 -82 38 -35 102 -9 102 41 0 44 -58 67
-102 41z m60 -42 c3 -21 -1 -27 -16 -27 -24 0 -36 28 -21 47 17 20 33 11 37
-20z"/>
<path d="M1102 553 c-1 -16 3 -40 9 -55 10 -25 16 -28 60 -28 l49 0 0 55 c0
42 -3 55 -15 55 -10 0 -15 -10 -15 -27 0 -37 -14 -57 -34 -50 -10 4 -16 19
-16 42 0 27 -4 35 -18 35 -12 0 -18 -9 -20 -27z"/>
<path d="M1250 524 c0 -47 3 -55 18 -52 11 2 18 14 20 36 2 19 11 36 23 42 27
15 14 30 -27 30 l-34 0 0 -56z"/>
<path d="M1510 524 c0 -47 3 -55 18 -52 12 2 18 14 20 41 2 24 8 37 18 37 8 0
14 7 14 15 0 10 -11 15 -35 15 l-35 0 0 -56z"/>
<path d="M1600 525 c0 -48 2 -55 20 -55 18 0 20 7 20 55 0 48 -2 55 -20 55
-18 0 -20 -7 -20 -55z"/>
<path d="M1680 560 c-25 -25 -25 -45 1 -71 14 -14 30 -19 52 -17 42 4 41 22
-1 26 -42 4 -31 22 14 22 26 0 34 4 34 18 0 43 -64 58 -100 22z m65 -9 c3 -5
1 -12 -4 -15 -13 -8 -42 4 -35 15 7 12 31 12 39 0z"/>
<path d="M1810 524 c0 -40 4 -54 14 -54 10 0 16 13 18 38 2 29 7 37 23 37 16
0 21 -8 23 -37 2 -25 8 -38 18 -38 10 0 14 13 14 49 0 55 -6 60 -72 59 l-38 0
0 -54z"/>
<path d="M2112 571 c-21 -13 -10 -44 17 -51 39 -9 39 -31 0 -23 -25 5 -31 3
-27 -8 6 -19 46 -23 74 -8 33 17 30 38 -6 50 -37 13 -39 29 -4 29 14 0 23 4
19 10 -8 12 -55 13 -73 1z"/>
</g>
</svg>
