<?xml version="1.0" encoding="UTF-8"?>
<svg viewBox="0 0 437.5 437.5" xmlns="http://www.w3.org/2000/svg" xmlns:xlink="http://www.w3.org/1999/xlink">
 <path d="m101.51 420.19-19.503-380.3 326.88 1.0174c-0.0154 20.061 5.6974 359.95 5.8924 376.59-103.06-20.494-303.92 2.5683-313.27 2.7015z" fill="#040565" fill-opacity=".3977" fill-rule="evenodd"/>
 <path d="m54.372 394.65c-5.846-126.11-7.7638-324.9-17.538-378.34 106.34 15.398 257.76-13.089 324.91-0.94677-20.024 58.673 3.7332 359.95 3.9282 376.59-103.06-20.494-310.87 12.037-311.3 2.7015z" fill="#ffffeb" fill-rule="evenodd" stroke="#9abf99" stroke-width="15.892"/>
 <path d="m75.978 367.16c-15.266-68.113-14.049-323.14-13.58-332.15 100.66 18.277 242.64-3.3405 260.57-2.9816l-0.5074 24.588c-0.0154 20.061-73.65 143.7-73.455 160.34-103.06-20.494-163.69 150.07-173.03 150.2z" fill="#b2d385" fill-opacity=".4327" fill-rule="evenodd"/>
 <path d="m234.09 148.89c17.264 15.553 48.546 53.53 58.405 64.782 10.358-10.61 39.477-57.066 44.802-65.667-6.6142-0.24112-19.344-0.16075-36.69 0.12057-22.796-78.969-84.113-85.359-100.96-85.359-87.108 1.0047-132.74 76.799-130.87 107.78 12.521-0.16075 69.678-0.9645 87.649-1.6477 4.5759-58.192 39.394-64.059 65.144-65.546 19.967-0.52243 45.551 15.512 51.666 44.809 1.2896 0.12057-27.247 0.64301-39.145 0.72338z" fill="#ffb200" fill-opacity=".53125" fill-rule="evenodd" stroke="#8b0000" stroke-width="8.3081"/>
 <path d="m164.57 241.12c-15.812-14.427-43.876-49.632-52.773-60.04-10.716 9.846-41.895 52.887-47.596 60.884 6.3489 0.20094 18.4 0.16075 35.06-0.12056 23.535 74.106 82.94 89.618 101.46 89.618 84.638-1.0047 142.18-77.482 140.36-108.43-27.984 0.12057-63.812 0.96451-99.682 1.6477-4.4483 58.152-35.667 67.435-58.07 67.555-18.804 0.48225-40.156-21.661-53.217-50.717 13.143-0.20094 24.829-0.32151 34.454-0.40188z" fill="#ff0" fill-opacity=".33594" fill-rule="evenodd" stroke="#275a00" stroke-width="8.1139"/>
</svg>
